# xmcd CD database file
#
# Track frame offsets:
#	182
#	14610
#	34975
#	57077
#	82655
#	103887
#	115155
#	140215
#	177092
#	196272
#	218475
#	239285
#	248820
#	263795
#
# Disc length: 3736 seconds
#
# Revision: 4
# Processed by: cddbd v1.5.2PL0 Copyright (c) Steve Scherf et al.
# Submitted via: CDex 1.51
#
DISCID=be0e960e
DTITLE=Jean Jacques Milteau - Blues Live - CD1
DYEAR=1995
DGENRE=Blues
TTITLE0=Sweet Home Chicago (Live)
TTITLE1=Get Off Of My Life Woman (Live)
TTITLE2=Further On Up The Road (Live)
TTITLE3=I Can't Hold Out (Live)
TTITLE4=Rollin' and Tumblin' (Live)
TTITLE5=Magnolia (Live)
TTITLE6=Key To The Highway (Live)
TTITLE7=Lonely Crowd (Live)
TTITLE8=Seacruise (Live)
TTITLE9=B.B. Kong (Live)
TTITLE10=I've Got To Go (Live)
TTITLE11=Lonesome Train (Live)
TTITLE12=Robert Johnson (Live)
TTITLE13=Don't You Mess With Me (Live)
EXTD=YEAR: 1995
EXTT0=
EXTT1=
EXTT2=
EXTT3=
EXTT4=
EXTT5=
EXTT6=
EXTT7=
EXTT8=
EXTT9=
EXTT10=
EXTT11=
EXTT12=
EXTT13=
PLAYORDER=
